<svg xmlns="http://www.w3.org/2000/svg" version="1.1" viewBox="0 0 221 221">
<g stroke-width="2.00" fill="none" stroke-linecap="butt">
<path stroke="#a3cbe8" vector-effect="non-scaling-stroke" d="
  M 60.83 206.81
  C 70.91 196.78 80.70 186.46 90.78 176.44
  C 95.50 171.76 98.06 168.99 93.07 162.89
  A 1.47 1.46 47.7 0 1 93.15 160.94
  L 110.40 143.36
  A 0.49 0.49 43.8 0 1 111.10 143.35
  L 128.65 161.03
  A 1.29 1.27 45.0 0 1 128.66 162.84
  C 123.00 168.52 126.54 171.61 131.08 176.29
  Q 142.62 188.21 163.56 209.19
  C 166.99 212.62 170.12 211.94 173.35 208.57
  Q 195.87 185.11 217.50 160.83
  C 220.75 157.19 220.47 154.04 216.69 151.06
  Q 200.85 138.61 184.86 126.35
  C 178.01 121.09 173.05 115.41 166.73 124.27
  A 0.53 0.48 -53.3 0 1 166.02 124.41
  L 157.19 117.52
  A 1.33 1.04 -80.0 0 1 156.75 116.69
  Q 151.82 77.41 146.71 38.16
  C 145.50 28.87 145.24 23.35 139.44 17.76
  C 131.38 10.01 120.46 9.96 111.59 16.82
  A 1.36 1.36 -90.0 0 1 109.93 16.82
  C 99.41 8.78 84.73 10.62 78.43 22.74
  Q 76.40 26.62 75.04 37.13
  Q 70.04 75.65 65.29 114.20
  C 64.75 118.60 59.62 121.35 56.49 124.11
  A 1.52 1.51 -37.9 0 1 54.25 123.84
  C 48.70 115.87 44.03 120.67 38.06 125.32
  Q 23.47 136.68 8.76 147.88
  C 3.22 152.10 -1.13 155.97 4.86 162.38
  Q 26.82 185.89 48.82 209.35
  C 53.69 214.54 57.36 210.26 60.83 206.81"
/>
<path stroke="#a3cbe8" vector-effect="non-scaling-stroke" d="
  M 82.31 152.18
  A 0.62 0.60 45.0 0 0 83.18 152.19
  L 103.42 131.72
  A 2.06 1.96 68.5 0 0 104.00 130.29
  Q 104.00 80.84 104.00 34.38
  C 104.00 31.36 104.28 29.15 102.05 26.99
  C 98.71 23.77 92.78 24.12 90.28 28.32
  Q 89.22 30.11 88.64 34.53
  Q 83.01 77.38 77.59 120.26
  C 76.88 125.81 69.41 130.17 65.47 133.70
  A 0.92 0.91 46.9 0 0 65.43 135.03
  L 82.31 152.18"
/>
<path stroke="#a3cbe8" vector-effect="non-scaling-stroke" d="
  M 156.29 133.68
  Q 151.12 129.52 147.18 126.35
  Q 144.54 124.23 144.00 120.00
  C 140.57 93.09 136.84 66.17 133.76 39.22
  Q 132.90 31.69 132.00 29.75
  C 129.34 24.04 122.93 23.15 119.10 27.94
  C 116.84 30.78 117.26 33.55 117.24 37.05
  Q 117.07 83.40 117.50 129.56
  A 3.26 3.25 24.1 0 0 118.31 131.68
  Q 127.81 142.51 138.32 152.34
  A 0.51 0.50 -46.2 0 0 139.03 152.32
  L 156.34 134.89
  A 0.82 0.80 -48.1 0 0 156.29 133.68"
/>
<path stroke="#a3cbe8" vector-effect="non-scaling-stroke" d="
  M 79.84 168.22
  L 47.35 135.35
  A 0.57 0.56 -41.0 0 0 46.60 135.30
  L 18.52 156.97
  A 0.51 0.49 49.8 0 0 18.47 157.71
  L 53.16 195.13
  A 0.49 0.48 -43.8 0 0 53.86 195.14
  L 79.83 169.05
  A 0.60 0.59 -45.0 0 0 79.84 168.22"
/>
<path stroke="#a3cbe8" vector-effect="non-scaling-stroke" d="
  M 174.27 135.21
  C 162.52 146.27 152.33 157.05 141.84 168.14
  A 0.52 0.51 44.2 0 0 141.86 168.86
  L 167.65 195.03
  A 0.49 0.49 -45.8 0 0 168.36 195.02
  L 203.16 157.47
  A 0.49 0.48 40.3 0 0 203.09 156.76
  L 175.12 135.17
  A 0.66 0.66 -47.5 0 0 174.27 135.21"
/>
</g>
<path fill="#ffffff" d="
  M 0.00 0.00
  L 221.00 0.00
  L 221.00 221.00
  L 0.00 221.00
  L 0.00 0.00
  Z
  M 60.83 206.81
  C 70.91 196.78 80.70 186.46 90.78 176.44
  C 95.50 171.76 98.06 168.99 93.07 162.89
  A 1.47 1.46 47.7 0 1 93.15 160.94
  L 110.40 143.36
  A 0.49 0.49 43.8 0 1 111.10 143.35
  L 128.65 161.03
  A 1.29 1.27 45.0 0 1 128.66 162.84
  C 123.00 168.52 126.54 171.61 131.08 176.29
  Q 142.62 188.21 163.56 209.19
  C 166.99 212.62 170.12 211.94 173.35 208.57
  Q 195.87 185.11 217.50 160.83
  C 220.75 157.19 220.47 154.04 216.69 151.06
  Q 200.85 138.61 184.86 126.35
  C 178.01 121.09 173.05 115.41 166.73 124.27
  A 0.53 0.48 -53.3 0 1 166.02 124.41
  L 157.19 117.52
  A 1.33 1.04 -80.0 0 1 156.75 116.69
  Q 151.82 77.41 146.71 38.16
  C 145.50 28.87 145.24 23.35 139.44 17.76
  C 131.38 10.01 120.46 9.96 111.59 16.82
  A 1.36 1.36 -90.0 0 1 109.93 16.82
  C 99.41 8.78 84.73 10.62 78.43 22.74
  Q 76.40 26.62 75.04 37.13
  Q 70.04 75.65 65.29 114.20
  C 64.75 118.60 59.62 121.35 56.49 124.11
  A 1.52 1.51 -37.9 0 1 54.25 123.84
  C 48.70 115.87 44.03 120.67 38.06 125.32
  Q 23.47 136.68 8.76 147.88
  C 3.22 152.10 -1.13 155.97 4.86 162.38
  Q 26.82 185.89 48.82 209.35
  C 53.69 214.54 57.36 210.26 60.83 206.81
  Z"
/>
<path fill="#4796d0" d="
  M 60.83 206.81
  C 57.36 210.26 53.69 214.54 48.82 209.35
  Q 26.82 185.89 4.86 162.38
  C -1.13 155.97 3.22 152.10 8.76 147.88
  Q 23.47 136.68 38.06 125.32
  C 44.03 120.67 48.70 115.87 54.25 123.84
  A 1.52 1.51 -37.9 0 0 56.49 124.11
  C 59.62 121.35 64.75 118.60 65.29 114.20
  Q 70.04 75.65 75.04 37.13
  Q 76.40 26.62 78.43 22.74
  C 84.73 10.62 99.41 8.78 109.93 16.82
  A 1.36 1.36 0.0 0 0 111.59 16.82
  C 120.46 9.96 131.38 10.01 139.44 17.76
  C 145.24 23.35 145.50 28.87 146.71 38.16
  Q 151.82 77.41 156.75 116.69
  A 1.33 1.04 -80.0 0 0 157.19 117.52
  L 166.02 124.41
  A 0.53 0.48 -53.3 0 0 166.73 124.27
  C 173.05 115.41 178.01 121.09 184.86 126.35
  Q 200.85 138.61 216.69 151.06
  C 220.47 154.04 220.75 157.19 217.50 160.83
  Q 195.87 185.11 173.35 208.57
  C 170.12 211.94 166.99 212.62 163.56 209.19
  Q 142.62 188.21 131.08 176.29
  C 126.54 171.61 123.00 168.52 128.66 162.84
  A 1.29 1.27 45.0 0 0 128.65 161.03
  L 111.10 143.35
  A 0.49 0.49 43.8 0 0 110.40 143.36
  L 93.15 160.94
  A 1.47 1.46 47.7 0 0 93.07 162.89
  C 98.06 168.99 95.50 171.76 90.78 176.44
  C 80.70 186.46 70.91 196.78 60.83 206.81
  Z
  M 82.31 152.18
  A 0.62 0.60 45.0 0 0 83.18 152.19
  L 103.42 131.72
  A 2.06 1.96 68.5 0 0 104.00 130.29
  Q 104.00 80.84 104.00 34.38
  C 104.00 31.36 104.28 29.15 102.05 26.99
  C 98.71 23.77 92.78 24.12 90.28 28.32
  Q 89.22 30.11 88.64 34.53
  Q 83.01 77.38 77.59 120.26
  C 76.88 125.81 69.41 130.17 65.47 133.70
  A 0.92 0.91 46.9 0 0 65.43 135.03
  L 82.31 152.18
  Z
  M 156.29 133.68
  Q 151.12 129.52 147.18 126.35
  Q 144.54 124.23 144.00 120.00
  C 140.57 93.09 136.84 66.17 133.76 39.22
  Q 132.90 31.69 132.00 29.75
  C 129.34 24.04 122.93 23.15 119.10 27.94
  C 116.84 30.78 117.26 33.55 117.24 37.05
  Q 117.07 83.40 117.50 129.56
  A 3.26 3.25 24.1 0 0 118.31 131.68
  Q 127.81 142.51 138.32 152.34
  A 0.51 0.50 -46.2 0 0 139.03 152.32
  L 156.34 134.89
  A 0.82 0.80 -48.1 0 0 156.29 133.68
  Z
  M 79.84 168.22
  L 47.35 135.35
  A 0.57 0.56 -41.0 0 0 46.60 135.30
  L 18.52 156.97
  A 0.51 0.49 49.8 0 0 18.47 157.71
  L 53.16 195.13
  A 0.49 0.48 -43.8 0 0 53.86 195.14
  L 79.83 169.05
  A 0.60 0.59 -45.0 0 0 79.84 168.22
  Z
  M 174.27 135.21
  C 162.52 146.27 152.33 157.05 141.84 168.14
  A 0.52 0.51 44.2 0 0 141.86 168.86
  L 167.65 195.03
  A 0.49 0.49 -45.8 0 0 168.36 195.02
  L 203.16 157.47
  A 0.49 0.48 40.3 0 0 203.09 156.76
  L 175.12 135.17
  A 0.66 0.66 -47.5 0 0 174.27 135.21
  Z"
/>
<path fill="#ffffff" d="
  M 82.31 152.18
  L 65.43 135.03
  A 0.92 0.91 46.9 0 1 65.47 133.70
  C 69.41 130.17 76.88 125.81 77.59 120.26
  Q 83.01 77.38 88.64 34.53
  Q 89.22 30.11 90.28 28.32
  C 92.78 24.12 98.71 23.77 102.05 26.99
  C 104.28 29.15 104.00 31.36 104.00 34.38
  Q 104.00 80.84 104.00 130.29
  A 2.06 1.96 68.5 0 1 103.42 131.72
  L 83.18 152.19
  A 0.62 0.60 45.0 0 1 82.31 152.18
  Z"
/>
<path fill="#ffffff" d="
  M 156.29 133.68
  A 0.82 0.80 -48.1 0 1 156.34 134.89
  L 139.03 152.32
  A 0.51 0.50 -46.2 0 1 138.32 152.34
  Q 127.81 142.51 118.31 131.68
  A 3.26 3.25 24.1 0 1 117.50 129.56
  Q 117.07 83.40 117.24 37.05
  C 117.26 33.55 116.84 30.78 119.10 27.94
  C 122.93 23.15 129.34 24.04 132.00 29.75
  Q 132.90 31.69 133.76 39.22
  C 136.84 66.17 140.57 93.09 144.00 120.00
  Q 144.54 124.23 147.18 126.35
  Q 151.12 129.52 156.29 133.68
  Z"
/>
<path fill="#ffffff" d="
  M 79.84 168.22
  A 0.60 0.59 -45.0 0 1 79.83 169.05
  L 53.86 195.14
  A 0.49 0.48 -43.8 0 1 53.16 195.13
  L 18.47 157.71
  A 0.51 0.49 49.8 0 1 18.52 156.97
  L 46.60 135.30
  A 0.57 0.56 -41.0 0 1 47.35 135.35
  L 79.84 168.22
  Z"
/>
<path fill="#ffffff" d="
  M 141.84 168.14
  C 152.33 157.05 162.52 146.27 174.27 135.21
  A 0.66 0.66 -47.5 0 1 175.12 135.17
  L 203.09 156.76
  A 0.49 0.48 40.3 0 1 203.16 157.47
  L 168.36 195.02
  A 0.49 0.49 -45.8 0 1 167.65 195.03
  L 141.86 168.86
  A 0.52 0.51 44.2 0 1 141.84 168.14
  Z"
/>
</svg>
