<svg xmlns="http://www.w3.org/2000/svg" version="1.1" viewBox="0 0 802 342">
<g stroke-width="2.00" fill="none" stroke-linecap="butt">
<path stroke="#bad5e9" vector-effect="non-scaling-stroke" d="
  M 121.75 277.04
  Q 124.09 280.90 128.24 280.65
  C 131.62 280.45 133.33 278.05 135.69 275.69
  Q 157.57 253.70 168.75 241.79"
/>
<path stroke="#a3cbe8" vector-effect="non-scaling-stroke" d="
  M 168.75 241.79
  C 172.78 237.90 175.42 233.91 170.15 229.07
  Q 168.67 227.71 170.10 226.28
  L 188.40 207.85
  A 0.49 0.49 -90.0 0 1 189.10 207.85
  L 208.06 226.68
  A 1.34 1.33 -45.6 0 1 208.07 228.55
  C 201.84 235.01 206.02 238.33 211.13 243.59
  Q 227.63 260.60 244.31 277.44
  C 249.05 282.22 252.50 281.00 256.77 276.45
  Q 279.87 251.82 302.72 226.96
  Q 308.18 221.02 301.93 216.07
  Q 282.21 200.50 262.26 185.21
  Q 260.07 183.53 257.67 182.57
  Q 256.14 181.95 254.65 182.68
  Q 251.31 184.30 248.72 187.49
  A 0.96 0.94 38.9 0 1 247.39 187.62
  L 239.09 180.99
  A 3.54 3.32 17.1 0 1 237.81 178.75
  C 234.21 149.53 230.02 120.45 226.84 91.38
  Q 226.15 85.10 225.00 82.25
  C 218.97 67.37 201.66 62.62 189.21 73.17
  A 0.91 0.90 -40.6 0 1 187.95 73.08
  C 182.57 66.92 172.21 66.36 165.47 69.14
  C 153.47 74.07 152.29 83.26 150.61 96.01
  Q 145.26 136.61 140.25 177.25
  C 139.77 181.18 133.90 184.72 131.48 186.90
  Q 129.65 188.55 128.17 186.58
  C 122.36 178.83 118.19 183.32 112.05 188.03
  Q 93.95 201.92 76.00 216.02
  C 69.52 221.12 74.16 225.91 78.44 230.56
  Q 99.92 253.96 121.75 277.04"
/>
<path stroke="#5ea1d2" vector-effect="non-scaling-stroke" d="
  M 168.75 241.79
  Q 163.97 244.94 159.97 248.96
  C 150.67 258.32 141.20 267.22 133.31 276.06
  C 129.17 280.71 126.45 277.67 121.75 277.04"
/>
<path stroke="#808080" vector-effect="non-scaling-stroke" d="
  M 648.61 188.19
  L 648.52 195.61
  A 0.64 0.62 0.4 0 0 649.16 196.24
  L 654.18 196.21
  A 0.53 0.52 89.4 0 0 654.69 195.68
  L 654.75 135.99
  A 0.99 0.99 0.0 0 0 653.76 135.00
  L 649.16 135.00
  A 0.66 0.66 90.0 0 0 648.50 135.66
  L 648.50 161.15
  Q 648.50 161.84 648.07 161.30
  Q 641.49 152.99 632.40 152.57
  C 603.94 151.28 603.46 196.20 630.81 196.53
  C 638.17 196.62 643.71 193.93 647.83 187.92
  Q 648.63 186.75 648.61 188.19"
/>
<path stroke="#808080" vector-effect="non-scaling-stroke" d="
  M 358.56 178.29
  C 366.57 177.99 377.53 178.81 383.95 176.27
  C 399.89 169.96 399.53 145.47 383.12 140.17
  C 375.22 137.62 361.92 138.78 352.19 138.69
  A 0.51 0.50 -0.0 0 0 351.68 139.19
  L 351.51 195.66
  A 0.79 0.72 -0.8 0 0 352.32 196.38
  L 357.49 196.25
  A 0.52 0.49 -0.6 0 0 358.00 195.76
  L 358.06 178.81
  A 0.52 0.52 -1.1 0 1 358.56 178.29"
/>
<path stroke="#808080" vector-effect="non-scaling-stroke" d="
  M 411.75 160.59
  C 411.61 158.16 413.71 152.29 409.60 152.58
  C 405.99 152.84 405.74 151.89 405.75 155.99
  Q 405.79 175.77 405.69 195.55
  A 0.59 0.50 90.0 0 0 406.19 196.14
  L 411.31 196.13
  A 0.76 0.69 90.0 0 0 412.00 195.37
  Q 412.00 186.63 411.76 178.76
  C 411.47 168.99 414.95 160.14 425.94 159.17
  Q 428.49 158.94 427.13 153.99
  A 1.79 1.79 -10.3 0 0 425.25 152.69
  Q 418.48 153.29 412.75 160.89
  Q 411.84 162.10 411.75 160.59"
/>
<path stroke="#808080" vector-effect="non-scaling-stroke" d="
  M 461.18 190.56
  L 461.39 195.57
  A 0.59 0.53 88.3 0 0 461.92 196.13
  L 466.61 196.17
  A 0.68 0.62 -89.1 0 0 467.24 195.50
  Q 467.40 182.43 467.13 170.06
  Q 466.98 163.35 465.40 160.23
  C 459.73 148.98 442.61 152.09 433.98 157.78
  A 0.85 0.79 -21.1 0 0 433.60 158.56
  Q 433.83 160.67 435.38 162.54
  A 0.95 0.94 -38.1 0 0 436.68 162.69
  C 444.76 156.63 461.05 154.66 461.00 169.64
  A 1.54 1.54 2.9 0 1 459.31 171.16
  C 453.56 170.58 442.39 170.18 436.95 173.03
  C 429.43 176.98 428.53 187.34 434.78 192.77
  C 442.31 199.31 454.02 196.79 460.83 190.40
  Q 461.16 190.09 461.18 190.56"
/>
<path stroke="#808080" vector-effect="non-scaling-stroke" d="
  M 492.88 187.35
  L 479.41 153.97
  A 1.93 1.73 77.7 0 0 477.75 152.77
  L 473.21 152.79
  A 0.68 0.64 78.4 0 0 472.63 153.72
  L 489.70 194.61
  A 3.22 3.11 44.0 0 1 489.78 196.89
  C 487.49 203.55 483.27 208.42 475.49 204.59
  A 1.22 0.99 24.8 0 0 473.93 204.99
  L 472.32 208.72
  A 1.39 1.16 27.3 0 0 472.98 210.29
  C 480.72 214.82 489.69 211.81 493.15 203.42
  Q 503.46 178.41 513.53 153.40
  A 0.47 0.47 -79.1 0 0 513.09 152.75
  L 508.36 152.75
  A 1.55 1.51 10.1 0 0 506.92 153.73
  L 494.00 187.34
  Q 493.45 188.77 492.88 187.35"
/>
<path stroke="#808080" vector-effect="non-scaling-stroke" d="
  M 530.46 153.76
  C 513.17 158.43 510.44 183.85 524.97 193.01
  C 533.82 198.58 544.78 197.23 553.02 190.67
  A 1.68 1.48 -38.3 0 0 553.42 188.47
  L 551.20 185.61
  A 0.59 0.44 -40.2 0 0 550.44 185.65
  C 542.09 193.18 527.81 192.66 523.12 181.06
  C 516.25 164.09 535.78 151.66 549.12 162.92
  A 0.89 0.81 53.5 0 0 549.97 163.09
  Q 552.26 162.19 553.05 159.59
  A 1.70 1.69 -64.1 0 0 552.41 157.72
  Q 542.32 150.56 530.46 153.76"
/>
<path stroke="#808080" vector-effect="non-scaling-stroke" d="
  M 603.74 174.58
  A 22.08 22.08 0.0 0 0 581.66 152.50
  A 22.08 22.08 0.0 0 0 559.58 174.58
  A 22.08 22.08 0.0 0 0 581.66 196.66
  A 22.08 22.08 0.0 0 0 603.74 174.58"
/>
<path stroke="#808080" vector-effect="non-scaling-stroke" d="
  M 673.56 177.06
  L 707.71 177.07
  A 0.54 0.54 -88.3 0 0 708.25 176.56
  C 708.82 164.53 703.27 154.01 690.44 152.82
  C 661.12 150.10 657.96 193.58 685.49 196.30
  Q 695.14 197.26 702.95 191.70
  Q 706.61 189.10 702.16 186.03
  A 0.67 0.66 41.1 0 0 701.33 186.08
  C 691.51 194.84 675.38 191.70 673.14 177.56
  A 0.43 0.43 85.4 0 1 673.56 177.06"
/>
<path stroke="#a3cbe8" vector-effect="non-scaling-stroke" d="
  M 181.67 89.10
  C 181.74 81.27 171.63 79.06 167.76 84.11
  Q 165.99 86.42 165.14 92.83
  Q 159.61 134.36 154.41 175.93
  Q 153.76 181.12 152.82 185.87
  Q 152.51 187.45 151.30 188.46
  L 140.18 197.70
  A 0.63 0.63 -42.0 0 0 140.13 198.63
  L 158.29 217.17
  A 0.90 0.88 45.2 0 0 159.56 217.19
  L 181.09 195.30
  A 2.44 2.35 67.8 0 0 181.77 193.59
  Q 181.18 140.58 181.67 89.10"
/>
<path stroke="#a3cbe8" vector-effect="non-scaling-stroke" d="
  M 237.66 197.63
  Q 232.40 193.36 228.06 189.69
  C 224.16 186.39 224.61 184.83 223.89 179.16
  Q 218.40 136.10 212.76 93.05
  C 211.98 87.08 210.91 80.78 202.97 81.64
  C 196.83 82.31 195.76 87.46 195.74 93.06
  Q 195.58 143.12 195.99 192.25
  Q 196.01 194.86 197.80 196.68
  L 218.15 217.40
  A 0.50 0.48 -44.6 0 0 218.85 217.39
  L 237.70 198.54
  A 0.61 0.61 -47.7 0 0 237.66 197.63"
/>
<path stroke="#a3cbe8" vector-effect="non-scaling-stroke" d="
  M 250.52 263.06
  C 262.39 249.45 275.19 236.59 287.47 222.83
  A 0.49 0.48 39.9 0 0 287.40 222.13
  L 257.49 198.99
  A 0.70 0.67 41.0 0 0 256.58 199.04
  L 222.05 234.20
  A 0.51 0.51 -44.9 0 0 222.05 234.92
  L 249.83 263.08
  A 0.47 0.47 43.0 0 0 250.52 263.06"
/>
<path stroke="#a3cbe8" vector-effect="non-scaling-stroke" d="
  M 155.75 234.15
  C 144.22 222.25 132.70 210.83 121.25 199.38
  A 0.73 0.72 48.7 0 0 120.28 199.31
  L 90.46 222.37
  A 0.47 0.46 -40.2 0 0 90.40 223.05
  L 127.16 262.88
  A 0.50 0.48 46.2 0 0 127.86 262.91
  L 155.75 235.36
  A 0.87 0.85 45.7 0 0 155.75 234.15"
/>
<path stroke="#808080" vector-effect="non-scaling-stroke" d="
  M 632.3491 190.8864
  A 16.28 15.72 91.2 0 0 648.4066 174.9392
  A 16.28 15.72 91.2 0 0 633.0309 158.3336
  A 16.28 15.72 91.2 0 0 616.9734 174.2808
  A 16.28 15.72 91.2 0 0 632.3491 190.8864"
/>
<path stroke="#808080" vector-effect="non-scaling-stroke" d="
  M 382.09 170.02
  C 394.05 164.38 390.37 145.88 377.00 145.25
  Q 368.38 144.84 358.86 145.02
  A 0.88 0.87 89.7 0 0 358.00 145.90
  L 358.00 170.88
  A 0.70 0.70 2.2 0 0 358.65 171.58
  C 364.79 172.02 376.46 172.68 382.09 170.02"
/>
<path stroke="#808080" vector-effect="non-scaling-stroke" d="
  M 437.44 179.94
  C 430.30 193.29 462.70 196.59 460.88 176.94
  A 1.00 0.99 -1.3 0 0 459.93 176.04
  C 454.52 175.84 440.28 174.63 437.44 179.94"
/>
<path stroke="#808080" vector-effect="non-scaling-stroke" d="
  M 581.7064 190.7999
  A 16.17 15.61 89.8 0 0 597.2599 174.5755
  A 16.17 15.61 89.8 0 0 581.5936 158.4601
  A 16.17 15.61 89.8 0 0 566.0401 174.6845
  A 16.17 15.61 89.8 0 0 581.7064 190.7999"
/>
<path stroke="#808080" vector-effect="non-scaling-stroke" d="
  M 702.36 171.02
  C 699.87 153.36 676.06 154.21 672.84 171.21
  A 0.46 0.46 5.2 0 0 673.29 171.75
  L 701.72 171.75
  A 0.65 0.64 -3.9 0 0 702.36 171.02"
/>
</g>
<path fill="#ffffff" d="
  M 0.00 0.00
  L 802.00 0.00
  L 802.00 342.00
  L 0.00 342.00
  L 0.00 0.00
  Z
  M 121.75 277.04
  Q 124.09 280.90 128.24 280.65
  C 131.62 280.45 133.33 278.05 135.69 275.69
  Q 157.57 253.70 168.75 241.79
  C 172.78 237.90 175.42 233.91 170.15 229.07
  Q 168.67 227.71 170.10 226.28
  L 188.40 207.85
  A 0.49 0.49 -90.0 0 1 189.10 207.85
  L 208.06 226.68
  A 1.34 1.33 -45.6 0 1 208.07 228.55
  C 201.84 235.01 206.02 238.33 211.13 243.59
  Q 227.63 260.60 244.31 277.44
  C 249.05 282.22 252.50 281.00 256.77 276.45
  Q 279.87 251.82 302.72 226.96
  Q 308.18 221.02 301.93 216.07
  Q 282.21 200.50 262.26 185.21
  Q 260.07 183.53 257.67 182.57
  Q 256.14 181.95 254.65 182.68
  Q 251.31 184.30 248.72 187.49
  A 0.96 0.94 38.9 0 1 247.39 187.62
  L 239.09 180.99
  A 3.54 3.32 17.1 0 1 237.81 178.75
  C 234.21 149.53 230.02 120.45 226.84 91.38
  Q 226.15 85.10 225.00 82.25
  C 218.97 67.37 201.66 62.62 189.21 73.17
  A 0.91 0.90 -40.6 0 1 187.95 73.08
  C 182.57 66.92 172.21 66.36 165.47 69.14
  C 153.47 74.07 152.29 83.26 150.61 96.01
  Q 145.26 136.61 140.25 177.25
  C 139.77 181.18 133.90 184.72 131.48 186.90
  Q 129.65 188.55 128.17 186.58
  C 122.36 178.83 118.19 183.32 112.05 188.03
  Q 93.95 201.92 76.00 216.02
  C 69.52 221.12 74.16 225.91 78.44 230.56
  Q 99.92 253.96 121.75 277.04
  Z
  M 648.61 188.19
  L 648.52 195.61
  A 0.64 0.62 0.4 0 0 649.16 196.24
  L 654.18 196.21
  A 0.53 0.52 89.4 0 0 654.69 195.68
  L 654.75 135.99
  A 0.99 0.99 0.0 0 0 653.76 135.00
  L 649.16 135.00
  A 0.66 0.66 90.0 0 0 648.50 135.66
  L 648.50 161.15
  Q 648.50 161.84 648.07 161.30
  Q 641.49 152.99 632.40 152.57
  C 603.94 151.28 603.46 196.20 630.81 196.53
  C 638.17 196.62 643.71 193.93 647.83 187.92
  Q 648.63 186.75 648.61 188.19
  Z
  M 358.56 178.29
  C 366.57 177.99 377.53 178.81 383.95 176.27
  C 399.89 169.96 399.53 145.47 383.12 140.17
  C 375.22 137.62 361.92 138.78 352.19 138.69
  A 0.51 0.50 -0.0 0 0 351.68 139.19
  L 351.51 195.66
  A 0.79 0.72 -0.8 0 0 352.32 196.38
  L 357.49 196.25
  A 0.52 0.49 -0.6 0 0 358.00 195.76
  L 358.06 178.81
  A 0.52 0.52 -1.1 0 1 358.56 178.29
  Z
  M 411.75 160.59
  C 411.61 158.16 413.71 152.29 409.60 152.58
  C 405.99 152.84 405.74 151.89 405.75 155.99
  Q 405.79 175.77 405.69 195.55
  A 0.59 0.50 90.0 0 0 406.19 196.14
  L 411.31 196.13
  A 0.76 0.69 90.0 0 0 412.00 195.37
  Q 412.00 186.63 411.76 178.76
  C 411.47 168.99 414.95 160.14 425.94 159.17
  Q 428.49 158.94 427.13 153.99
  A 1.79 1.79 -10.3 0 0 425.25 152.69
  Q 418.48 153.29 412.75 160.89
  Q 411.84 162.10 411.75 160.59
  Z
  M 461.18 190.56
  L 461.39 195.57
  A 0.59 0.53 88.3 0 0 461.92 196.13
  L 466.61 196.17
  A 0.68 0.62 -89.1 0 0 467.24 195.50
  Q 467.40 182.43 467.13 170.06
  Q 466.98 163.35 465.40 160.23
  C 459.73 148.98 442.61 152.09 433.98 157.78
  A 0.85 0.79 -21.1 0 0 433.60 158.56
  Q 433.83 160.67 435.38 162.54
  A 0.95 0.94 -38.1 0 0 436.68 162.69
  C 444.76 156.63 461.05 154.66 461.00 169.64
  A 1.54 1.54 2.9 0 1 459.31 171.16
  C 453.56 170.58 442.39 170.18 436.95 173.03
  C 429.43 176.98 428.53 187.34 434.78 192.77
  C 442.31 199.31 454.02 196.79 460.83 190.40
  Q 461.16 190.09 461.18 190.56
  Z
  M 492.88 187.35
  L 479.41 153.97
  A 1.93 1.73 77.7 0 0 477.75 152.77
  L 473.21 152.79
  A 0.68 0.64 78.4 0 0 472.63 153.72
  L 489.70 194.61
  A 3.22 3.11 44.0 0 1 489.78 196.89
  C 487.49 203.55 483.27 208.42 475.49 204.59
  A 1.22 0.99 24.8 0 0 473.93 204.99
  L 472.32 208.72
  A 1.39 1.16 27.3 0 0 472.98 210.29
  C 480.72 214.82 489.69 211.81 493.15 203.42
  Q 503.46 178.41 513.53 153.40
  A 0.47 0.47 -79.1 0 0 513.09 152.75
  L 508.36 152.75
  A 1.55 1.51 10.1 0 0 506.92 153.73
  L 494.00 187.34
  Q 493.45 188.77 492.88 187.35
  Z
  M 530.46 153.76
  C 513.17 158.43 510.44 183.85 524.97 193.01
  C 533.82 198.58 544.78 197.23 553.02 190.67
  A 1.68 1.48 -38.3 0 0 553.42 188.47
  L 551.20 185.61
  A 0.59 0.44 -40.2 0 0 550.44 185.65
  C 542.09 193.18 527.81 192.66 523.12 181.06
  C 516.25 164.09 535.78 151.66 549.12 162.92
  A 0.89 0.81 53.5 0 0 549.97 163.09
  Q 552.26 162.19 553.05 159.59
  A 1.70 1.69 -64.1 0 0 552.41 157.72
  Q 542.32 150.56 530.46 153.76
  Z
  M 603.74 174.58
  A 22.08 22.08 0.0 0 0 581.66 152.50
  A 22.08 22.08 0.0 0 0 559.58 174.58
  A 22.08 22.08 0.0 0 0 581.66 196.66
  A 22.08 22.08 0.0 0 0 603.74 174.58
  Z
  M 673.56 177.06
  L 707.71 177.07
  A 0.54 0.54 -88.3 0 0 708.25 176.56
  C 708.82 164.53 703.27 154.01 690.44 152.82
  C 661.12 150.10 657.96 193.58 685.49 196.30
  Q 695.14 197.26 702.95 191.70
  Q 706.61 189.10 702.16 186.03
  A 0.67 0.66 41.1 0 0 701.33 186.08
  C 691.51 194.84 675.38 191.70 673.14 177.56
  A 0.43 0.43 85.4 0 1 673.56 177.06
  Z"
/>
<path fill="#4796d0" d="
  M 168.75 241.79
  Q 163.97 244.94 159.97 248.96
  C 150.67 258.32 141.20 267.22 133.31 276.06
  C 129.17 280.71 126.45 277.67 121.75 277.04
  Q 99.92 253.96 78.44 230.56
  C 74.16 225.91 69.52 221.12 76.00 216.02
  Q 93.95 201.92 112.05 188.03
  C 118.19 183.32 122.36 178.83 128.17 186.58
  Q 129.65 188.55 131.48 186.90
  C 133.90 184.72 139.77 181.18 140.25 177.25
  Q 145.26 136.61 150.61 96.01
  C 152.29 83.26 153.47 74.07 165.47 69.14
  C 172.21 66.36 182.57 66.92 187.95 73.08
  A 0.91 0.90 -40.6 0 0 189.21 73.17
  C 201.66 62.62 218.97 67.37 225.00 82.25
  Q 226.15 85.10 226.84 91.38
  C 230.02 120.45 234.21 149.53 237.81 178.75
  A 3.54 3.32 17.1 0 0 239.09 180.99
  L 247.39 187.62
  A 0.96 0.94 38.9 0 0 248.72 187.49
  Q 251.31 184.30 254.65 182.68
  Q 256.14 181.95 257.67 182.57
  Q 260.07 183.53 262.26 185.21
  Q 282.21 200.50 301.93 216.07
  Q 308.18 221.02 302.72 226.96
  Q 279.87 251.82 256.77 276.45
  C 252.50 281.00 249.05 282.22 244.31 277.44
  Q 227.63 260.60 211.13 243.59
  C 206.02 238.33 201.84 235.01 208.07 228.55
  A 1.34 1.33 -45.6 0 0 208.06 226.68
  L 189.10 207.85
  A 0.49 0.49 0.0 0 0 188.40 207.85
  L 170.10 226.28
  Q 168.67 227.71 170.15 229.07
  C 175.42 233.91 172.78 237.90 168.75 241.79
  Z
  M 181.67 89.10
  C 181.74 81.27 171.63 79.06 167.76 84.11
  Q 165.99 86.42 165.14 92.83
  Q 159.61 134.36 154.41 175.93
  Q 153.76 181.12 152.82 185.87
  Q 152.51 187.45 151.30 188.46
  L 140.18 197.70
  A 0.63 0.63 -42.0 0 0 140.13 198.63
  L 158.29 217.17
  A 0.90 0.88 45.2 0 0 159.56 217.19
  L 181.09 195.30
  A 2.44 2.35 67.8 0 0 181.77 193.59
  Q 181.18 140.58 181.67 89.10
  Z
  M 237.66 197.63
  Q 232.40 193.36 228.06 189.69
  C 224.16 186.39 224.61 184.83 223.89 179.16
  Q 218.40 136.10 212.76 93.05
  C 211.98 87.08 210.91 80.78 202.97 81.64
  C 196.83 82.31 195.76 87.46 195.74 93.06
  Q 195.58 143.12 195.99 192.25
  Q 196.01 194.86 197.80 196.68
  L 218.15 217.40
  A 0.50 0.48 -44.6 0 0 218.85 217.39
  L 237.70 198.54
  A 0.61 0.61 -47.7 0 0 237.66 197.63
  Z
  M 250.52 263.06
  C 262.39 249.45 275.19 236.59 287.47 222.83
  A 0.49 0.48 39.9 0 0 287.40 222.13
  L 257.49 198.99
  A 0.70 0.67 41.0 0 0 256.58 199.04
  L 222.05 234.20
  A 0.51 0.51 -44.9 0 0 222.05 234.92
  L 249.83 263.08
  A 0.47 0.47 43.0 0 0 250.52 263.06
  Z
  M 155.75 234.15
  C 144.22 222.25 132.70 210.83 121.25 199.38
  A 0.73 0.72 48.7 0 0 120.28 199.31
  L 90.46 222.37
  A 0.47 0.46 -40.2 0 0 90.40 223.05
  L 127.16 262.88
  A 0.50 0.48 46.2 0 0 127.86 262.91
  L 155.75 235.36
  A 0.87 0.85 45.7 0 0 155.75 234.15
  Z"
/>
<path fill="#ffffff" d="
  M 167.76 84.11
  C 171.63 79.06 181.74 81.27 181.67 89.10
  Q 181.18 140.58 181.77 193.59
  A 2.44 2.35 67.8 0 1 181.09 195.30
  L 159.56 217.19
  A 0.90 0.88 45.2 0 1 158.29 217.17
  L 140.13 198.63
  A 0.63 0.63 -42.0 0 1 140.18 197.70
  L 151.30 188.46
  Q 152.51 187.45 152.82 185.87
  Q 153.76 181.12 154.41 175.93
  Q 159.61 134.36 165.14 92.83
  Q 165.99 86.42 167.76 84.11
  Z"
/>
<path fill="#ffffff" d="
  M 237.66 197.63
  A 0.61 0.61 -47.7 0 1 237.70 198.54
  L 218.85 217.39
  A 0.50 0.48 -44.6 0 1 218.15 217.40
  L 197.80 196.68
  Q 196.01 194.86 195.99 192.25
  Q 195.58 143.12 195.74 93.06
  C 195.76 87.46 196.83 82.31 202.97 81.64
  C 210.91 80.78 211.98 87.08 212.76 93.05
  Q 218.40 136.10 223.89 179.16
  C 224.61 184.83 224.16 186.39 228.06 189.69
  Q 232.40 193.36 237.66 197.63
  Z"
/>
<path fill="#000000" d="
  M 648.61 188.19
  Q 648.63 186.75 647.83 187.92
  C 643.71 193.93 638.17 196.62 630.81 196.53
  C 603.46 196.20 603.94 151.28 632.40 152.57
  Q 641.49 152.99 648.07 161.30
  Q 648.50 161.84 648.50 161.15
  L 648.50 135.66
  A 0.66 0.66 -89.5 0 1 649.16 135.00
  L 653.76 135.00
  A 0.99 0.99 0.0 0 1 654.75 135.99
  L 654.69 195.68
  A 0.53 0.52 89.4 0 1 654.18 196.21
  L 649.16 196.24
  A 0.64 0.62 0.4 0 1 648.52 195.61
  L 648.61 188.19
  Z
  M 632.3491 190.8864
  A 16.28 15.72 91.2 0 0 648.4066 174.9392
  A 16.28 15.72 91.2 0 0 633.0309 158.3336
  A 16.28 15.72 91.2 0 0 616.9734 174.2808
  A 16.28 15.72 91.2 0 0 632.3491 190.8864
  Z"
/>
<path fill="#000000" d="
  M 358.06 178.81
  L 358.00 195.76
  A 0.52 0.49 -0.6 0 1 357.49 196.25
  L 352.32 196.38
  A 0.79 0.72 -0.8 0 1 351.51 195.66
  L 351.68 139.19
  A 0.51 0.50 -0.0 0 1 352.19 138.69
  C 361.92 138.78 375.22 137.62 383.12 140.17
  C 399.53 145.47 399.89 169.96 383.95 176.27
  C 377.53 178.81 366.57 177.99 358.56 178.29
  A 0.52 0.52 -1.1 0 0 358.06 178.81
  Z
  M 382.09 170.02
  C 394.05 164.38 390.37 145.88 377.00 145.25
  Q 368.38 144.84 358.86 145.02
  A 0.88 0.87 89.7 0 0 358.00 145.90
  L 358.00 170.88
  A 0.70 0.70 2.2 0 0 358.65 171.58
  C 364.79 172.02 376.46 172.68 382.09 170.02
  Z"
/>
<path fill="#ffffff" d="
  M 377.00 145.25
  C 390.37 145.88 394.05 164.38 382.09 170.02
  C 376.46 172.68 364.79 172.02 358.65 171.58
  A 0.70 0.70 2.2 0 1 358.00 170.88
  L 358.00 145.90
  A 0.88 0.87 89.7 0 1 358.86 145.02
  Q 368.38 144.84 377.00 145.25
  Z"
/>
<path fill="#000000" d="
  M 411.75 160.59
  Q 411.84 162.10 412.75 160.89
  Q 418.48 153.29 425.25 152.69
  A 1.79 1.79 -10.3 0 1 427.13 153.99
  Q 428.49 158.94 425.94 159.17
  C 414.95 160.14 411.47 168.99 411.76 178.76
  Q 412.00 186.63 412.00 195.37
  A 0.76 0.69 -90.0 0 1 411.31 196.13
  L 406.19 196.14
  A 0.59 0.50 90.0 0 1 405.69 195.55
  Q 405.79 175.77 405.75 155.99
  C 405.74 151.89 405.99 152.84 409.60 152.58
  C 413.71 152.29 411.61 158.16 411.75 160.59
  Z"
/>
<path fill="#000000" d="
  M 460.83 190.40
  C 454.02 196.79 442.31 199.31 434.78 192.77
  C 428.53 187.34 429.43 176.98 436.95 173.03
  C 442.39 170.18 453.56 170.58 459.31 171.16
  A 1.54 1.54 2.9 0 0 461.00 169.64
  C 461.05 154.66 444.76 156.63 436.68 162.69
  A 0.95 0.94 -38.1 0 1 435.38 162.54
  Q 433.83 160.67 433.60 158.56
  A 0.85 0.79 -21.1 0 1 433.98 157.78
  C 442.61 152.09 459.73 148.98 465.40 160.23
  Q 466.98 163.35 467.13 170.06
  Q 467.40 182.43 467.24 195.50
  A 0.68 0.62 -89.1 0 1 466.61 196.17
  L 461.92 196.13
  A 0.59 0.53 88.3 0 1 461.39 195.57
  L 461.18 190.56
  Q 461.16 190.09 460.83 190.40
  Z
  M 437.44 179.94
  C 430.30 193.29 462.70 196.59 460.88 176.94
  A 1.00 0.99 -1.3 0 0 459.93 176.04
  C 454.52 175.84 440.28 174.63 437.44 179.94
  Z"
/>
<path fill="#000000" d="
  M 492.88 187.35
  Q 493.45 188.77 494.00 187.34
  L 506.92 153.73
  A 1.55 1.51 10.1 0 1 508.36 152.75
  L 513.09 152.75
  A 0.47 0.47 -79.1 0 1 513.53 153.40
  Q 503.46 178.41 493.15 203.42
  C 489.69 211.81 480.72 214.82 472.98 210.29
  A 1.39 1.16 27.3 0 1 472.32 208.72
  L 473.93 204.99
  A 1.22 0.99 24.8 0 1 475.49 204.59
  C 483.27 208.42 487.49 203.55 489.78 196.89
  A 3.22 3.11 44.0 0 0 489.70 194.61
  L 472.63 153.72
  A 0.68 0.64 78.4 0 1 473.21 152.79
  L 477.75 152.77
  A 1.93 1.73 77.7 0 1 479.41 153.97
  L 492.88 187.35
  Z"
/>
<path fill="#000000" d="
  M 524.97 193.01
  C 510.44 183.85 513.17 158.43 530.46 153.76
  Q 542.32 150.56 552.41 157.72
  A 1.70 1.69 -64.1 0 1 553.05 159.59
  Q 552.26 162.19 549.97 163.09
  A 0.89 0.81 53.5 0 1 549.12 162.92
  C 535.78 151.66 516.25 164.09 523.12 181.06
  C 527.81 192.66 542.09 193.18 550.44 185.65
  A 0.59 0.44 -40.2 0 1 551.20 185.61
  L 553.42 188.47
  A 1.68 1.48 -38.3 0 1 553.02 190.67
  C 544.78 197.23 533.82 198.58 524.97 193.01
  Z"
/>
<path fill="#000000" d="
  M 603.74 174.58
  A 22.08 22.08 0.0 0 1 581.66 196.66
  A 22.08 22.08 0.0 0 1 559.58 174.58
  A 22.08 22.08 0.0 0 1 581.66 152.50
  A 22.08 22.08 0.0 0 1 603.74 174.58
  Z
  M 581.7064 190.7999
  A 16.17 15.61 89.8 0 0 597.2599 174.5755
  A 16.17 15.61 89.8 0 0 581.5936 158.4601
  A 16.17 15.61 89.8 0 0 566.0401 174.6845
  A 16.17 15.61 89.8 0 0 581.7064 190.7999
  Z"
/>
<path fill="#000000" d="
  M 673.14 177.56
  C 675.38 191.70 691.51 194.84 701.33 186.08
  A 0.67 0.66 41.1 0 1 702.16 186.03
  Q 706.61 189.10 702.95 191.70
  Q 695.14 197.26 685.49 196.30
  C 657.96 193.58 661.12 150.10 690.44 152.82
  C 703.27 154.01 708.82 164.53 708.25 176.56
  A 0.54 0.54 -88.3 0 1 707.71 177.07
  L 673.56 177.06
  A 0.43 0.43 85.4 0 0 673.14 177.56
  Z
  M 702.36 171.02
  C 699.87 153.36 676.06 154.21 672.84 171.21
  A 0.46 0.46 5.2 0 0 673.29 171.75
  L 701.72 171.75
  A 0.65 0.64 -3.9 0 0 702.36 171.02
  Z"
/>
<path fill="#ffffff" d="
  M 672.84 171.21
  C 676.06 154.21 699.87 153.36 702.36 171.02
  A 0.65 0.64 -3.9 0 1 701.72 171.75
  L 673.29 171.75
  A 0.46 0.46 5.2 0 1 672.84 171.21
  Z"
/>
<ellipse fill="#ffffff" cx="0.00" cy="0.00" transform="translate(581.65,174.63) rotate(89.8)" rx="16.17" ry="15.61"/>
<ellipse fill="#ffffff" cx="0.00" cy="0.00" transform="translate(632.69,174.61) rotate(91.2)" rx="16.28" ry="15.72"/>
<path fill="#ffffff" d="
  M 437.44 179.94
  C 440.28 174.63 454.52 175.84 459.93 176.04
  A 1.00 0.99 -1.3 0 1 460.88 176.94
  C 462.70 196.59 430.30 193.29 437.44 179.94
  Z"
/>
<path fill="#ffffff" d="
  M 287.47 222.83
  C 275.19 236.59 262.39 249.45 250.52 263.06
  A 0.47 0.47 43.0 0 1 249.83 263.08
  L 222.05 234.92
  A 0.51 0.51 -45.7 0 1 222.05 234.20
  L 256.58 199.04
  A 0.70 0.67 41.0 0 1 257.49 198.99
  L 287.40 222.13
  A 0.49 0.48 39.9 0 1 287.47 222.83
  Z"
/>
<path fill="#ffffff" d="
  M 121.25 199.38
  C 132.70 210.83 144.22 222.25 155.75 234.15
  A 0.87 0.85 45.7 0 1 155.75 235.36
  L 127.86 262.91
  A 0.50 0.48 46.2 0 1 127.16 262.88
  L 90.40 223.05
  A 0.47 0.46 -40.2 0 1 90.46 222.37
  L 120.28 199.31
  A 0.73 0.72 48.7 0 1 121.25 199.38
  Z"
/>
<path fill="#75abd3" d="
  M 168.75 241.79
  Q 157.57 253.70 135.69 275.69
  C 133.33 278.05 131.62 280.45 128.24 280.65
  Q 124.09 280.90 121.75 277.04
  C 126.45 277.67 129.17 280.71 133.31 276.06
  C 141.20 267.22 150.67 258.32 159.97 248.96
  Q 163.97 244.94 168.75 241.79
  Z"
/>
</svg>
